# xmcd
#
# Track frame offsets:
# 150
# 65092
# 86662
# 116104
# 137432
# 154068
# 182640
# 203932
#
# Disc length: 3334 seconds
#
# Revision: 0
# Processed by: cddbd v1.5.2PL0 Copyright (c) Steve Scherf et al.
# Submitted via: Audion 3.0.2 (http://www.panic.com/audion/)
#
DISCID=6f0d0408
DTITLE=mitchie - mitchie
DYEAR=1900
DGENRE=
TTITLE0=jam
TTITLE1=jam
TTITLE2=jam
TTITLE3=jam
TTITLE4=jam
TTITLE5=jam
TTITLE6=jam
TTITLE7=jam
EXTD=
EXTT0=
EXTT1=
EXTT2=
EXTT3=
EXTT4=
EXTT5=
EXTT6=
EXTT7=
PLAYORDER=
